<svg xml:space="preserve" viewBox="0 0 100 100" y="0" x="0" xmlns="http://www.w3.org/2000/svg"
    id="Layer_1" version="1.1" width="14px" height="14px" xmlns:xlink="http://www.w3.org/1999/xlink"
    style="margin: auto; background: none; display: block; shape-rendering: auto;"><g class="ldl-scale" style="transform-origin:50% 50%;transform:rotate(0deg)" >
<path stroke-miterlimit="10" stroke-width="3.5" stroke="#323232" fill="url(#SVGID_1_)" d="M44.859 16.397L9.485 77.667c-2.285 3.957.571 8.904 5.141 8.904h70.748c4.57 0 7.425-4.947 5.141-8.904l-35.374-61.27c-2.285-3.957-7.997-3.957-10.282 0z" style="stroke:rgb(255, 255, 255);animation-play-state:paused" ></path>
<g><path fill="#fff" d="M53.4 68.511l.6 3.906a4.048 4.048 0 0 1-8 1.23 4.183 4.183 0 0 1 0-1.229l.6-3.906a3.44 3.44 0 0 1 6.8-.001z" style="fill:rgb(255, 255, 255)" ></path></g>
<g><path fill="#fff" d="M54 40.417l-1.2 17.28a2.807 2.807 0 0 1-5.6 0L46 40.417a4.01 4.01 0 1 1 8 0z" style="fill:rgb(255, 255, 255);animation-play-state:paused" ></path></g>
</g></svg>